<!-- Generated by IcoMoon.io -->
<svg version="1.1" xmlns="http://www.w3.org/2000/svg" width="512" height="512" viewBox="0 0 512 512">
<g id="icomoon-ignore">
</g>
<path fill="#2e2f42" d="M492.37 353.562l-135.091-136.081 14.993-73.848c3.869 1.511 7.983 2.3 12.135 2.329h0.103c19.077 0.226 34.723-15.056 34.95-34.132s-15.056-34.723-34.132-34.95c-19.077-0.225-34.723 15.056-34.95 34.132-0.048 4.082 0.627 8.139 1.996 11.986l-79.36 9.685-129.451-130.125c-1.588-1.621-3.756-2.542-6.025-2.56-2.24 0.011-4.385 0.903-5.973 2.483l-24.201 24.064c-3.331 3.332-3.331 8.734 0 12.066l13.022 13.209c-50.448 92.766-34.063 207.645 40.312 282.606 0.683 0.653 1.474 1.181 2.338 1.562-0.537 2.888-0.817 5.817-0.836 8.755v98.987h-102.4c-23.552 0.027-42.639 19.115-42.666 42.666v17.067c0 4.713 3.821 8.534 8.534 8.534h392.533c4.713 0 8.534-3.821 8.534-8.534v-17.067c-0.028-23.552-19.115-42.639-42.666-42.666h-102.4v-43.87c16.041 3.365 32.385 5.080 48.776 5.12 39.33-0.043 78.034-9.847 112.64-28.535l13.091 13.167c1.588 1.62 3.756 2.541 6.025 2.56 2.24-0.012 4.385-0.904 5.973-2.483l24.201-24.064c3.331-3.333 3.331-8.735 0-12.067zM372.477 99.729c6.683-6.647 17.49-6.617 24.136 0.066s6.618 17.489-0.065 24.135c-3.199 3.181-7.527 4.967-12.039 4.967h-0.051c-9.425-0.049-17.027-7.729-16.978-17.155 0.024-4.512 1.833-8.829 5.032-12.012h-0.034zM352.389 155.802l-9.575 47.13-18.808-18.918 28.382-28.211zM342.696 141.372l-30.72 30.541-23.765-23.893 54.486-6.647zM384.065 460.8c14.139 0 25.6 11.462 25.6 25.6v8.534h-375.467v-8.534c0-14.139 11.462-25.6 25.6-25.6h324.267zM264.599 426.666v17.067h-85.334v-17.067h85.334zM179.265 409.6v-64.853c0-20.702 19.141-37.546 42.667-37.546s42.667 16.845 42.667 37.546v64.853h-85.334zM281.666 382.464v-37.718c0-30.113-26.795-54.613-59.733-54.613-21.298-0.327-41.212 10.514-52.498 28.577-64.923-68.381-79.543-170.323-36.458-254.194l297.63 299.336c-45.959 23.379-98.642 29.962-148.941 18.611zM462.291 371.524l-336.913-338.892 12.075-12.032 126.959 127.676c0.060 0 0.094 0.111 0.154 0.154l209.834 211.063-12.109 12.032z"></path>
<path fill="#4d5ae5" d="M222.009 324.267h-0.077c-14.138-0.022-25.617 11.423-25.638 25.562s11.423 25.617 25.561 25.639h0.077c14.138 0.022 25.617-11.423 25.638-25.562s-11.423-25.617-25.561-25.639zM227.982 355.917c-1.607 1.598-3.784 2.491-6.050 2.483-4.713-0.025-8.513-3.865-8.489-8.577 0.012-2.256 0.917-4.414 2.515-6.007 1.589-1.579 3.733-2.471 5.974-2.483 4.713 0.025 8.513 3.865 8.489 8.577-0.012 2.256-0.917 4.414-2.515 6.007h0.077z"></path>
</svg>
