<!-- Generated by IcoMoon.io -->
<svg version="1.1" xmlns="http://www.w3.org/2000/svg" width="512" height="512" viewBox="0 0 512 512">
<g id="icomoon-ignore">
</g>
<path fill="#4d5ae5" d="M511.585 72.385c-1.007-3.081-3.669-5.333-6.887-5.803l-30.567-4.446-13.679-27.7c-2.866-5.837-12.433-5.837-15.3 0l-13.679 27.7-30.567 4.447c-3.217 0.469-5.879 2.714-6.895 5.803-0.998 3.089-0.171 6.485 2.159 8.747l22.127 21.565-5.223 30.447c-0.546 3.2 0.768 6.434 3.388 8.346 2.654 1.929 6.118 2.167 8.995 0.648l27.341-14.379 27.341 14.379c1.245 0.657 2.62 0.981 3.977 0.981 1.765 0 3.533-0.546 5.017-1.63 2.628-1.911 3.942-5.147 3.388-8.346l-5.221-30.447 22.127-21.565c2.318-2.27 3.155-5.658 2.156-8.747zM472.178 93.616c-2.005 1.954-2.927 4.787-2.449 7.553l3.055 17.826-16.008-8.413c-1.245-0.657-2.611-0.981-3.977-0.981s-2.723 0.324-3.978 0.981l-16.009 8.413 3.055-17.826c0.478-2.766-0.444-5.59-2.45-7.553l-12.962-12.629 17.903-2.603c2.781-0.401 5.18-2.15 6.425-4.668l8.005-16.213 8.004 16.213c1.245 2.517 3.644 4.267 6.425 4.668l17.903 2.603-12.945 12.629z"></path>
<path fill="#4d5ae5" d="M418.135 328.355h-17.067v17.067h17.067v-17.067z"></path>
<path fill="#4d5ae5" d="M418.135 362.49h-17.067v17.067h17.067v-17.067z"></path>
<path fill="#4d5ae5" d="M435.202 345.423h-17.067v17.067h17.067v-17.067z"></path>
<path fill="#4d5ae5" d="M401.070 345.423h-17.067v17.067h17.067v-17.067z"></path>
<path fill="#4d5ae5" d="M358.401 422.224h-17.067v17.067h17.067v-17.067z"></path>
<path fill="#4d5ae5" d="M358.401 456.357h-17.067v17.068h17.067v-17.068z"></path>
<path fill="#4d5ae5" d="M375.469 439.291h-17.067v17.068h17.067v-17.068z"></path>
<path fill="#4d5ae5" d="M341.334 439.291h-17.067v17.068h17.067v-17.068z"></path>
<path fill="#4d5ae5" d="M256 388.091h-17.067v17.067h17.067v-17.067z"></path>
<path fill="#4d5ae5" d="M256 422.224h-17.067v17.067h17.067v-17.067z"></path>
<path fill="#4d5ae5" d="M273.067 405.156h-17.067v17.067h17.067v-17.067z"></path>
<path fill="#4d5ae5" d="M238.933 405.156h-17.067v17.067h17.067v-17.067z"></path>
<path fill="#4d5ae5" d="M93.864 97.951h-17.067v17.067h17.067v-17.067z"></path>
<path fill="#4d5ae5" d="M93.864 132.087h-17.067v17.067h17.067v-17.067z"></path>
<path fill="#4d5ae5" d="M110.93 115.019h-17.067v17.067h17.067v-17.067z"></path>
<path fill="#4d5ae5" d="M76.797 115.019h-17.067v17.067h17.067v-17.067z"></path>
<path fill="#2e2f42" d="M395.436 226.551c-4.599-6.204-11.349-10.197-19.012-11.273-7.697-1.092-15.292 0.929-21.437 5.632l-20.037 15.36-30.363 22.673-21.726-8.653c38.741-17.382 65.819-56.133 65.819-101.121 0-61.168-49.964-110.935-111.379-110.935s-111.377 49.767-111.377 110.935c0 22.171 6.631 42.786 17.92 60.135l-44.221-0.384c-0.025 0-0.050 0-0.077 0-0.137 0-0.247 0.068-0.375 0.077-0.845 0.034-1.673 0.205-2.483 0.494-0.206 0.077-0.418 0.12-0.615 0.214-0.102 0.042-0.205 0.050-0.307 0.101l-51.73 25.541c-0.009 0-0.017 0-0.017 0.008l-30.294 14.568c-0.333 0.145-0.674 0.341-1.007 0.563-12.075 8.038-16.189 23.825-9.574 36.727 3.524 6.861 9.523 11.913 16.896 14.226 2.842 0.887 5.743 1.322 8.627 1.322 4.634 0 9.225-1.135 13.431-3.378l22.204-11.81 36.225-18.706 21.709-0.128-87.067 86.649c-0.008 0.009-0.017 0.009-0.026 0.017l-21.419 21.334c-5.060 5.035-7.842 11.716-7.842 18.843 0 7.117 2.782 13.815 7.842 18.859 5.197 5.171 12.032 7.765 18.867 7.765 6.844 0 13.67-2.594 18.885-7.765l21.026-20.942 27.853-20.796 14.413 14.353-28.186 28.067c-0.008 0.010-0.017 0.010-0.025 0.017l-21.419 21.333c-5.060 5.035-7.842 11.716-7.842 18.842 0 7.117 2.782 13.815 7.842 18.859 5.197 5.171 12.041 7.765 18.876 7.765s13.679-2.594 18.884-7.765l55.706-55.466c0.009-0.010 0.009-0.017 0.017-0.026l16.155-16-0.060-0.060c0.101-0.103 0.246-0.137 0.35-0.247l82.655-90.531 55.536 7.901c0.401 0.060 0.803 0.086 1.203 0.086 1.033 0 2.031-0.247 2.995-0.615 0.281-0.101 0.529-0.239 0.793-0.375 0.307-0.154 0.631-0.238 0.923-0.435l51.413-34.133c0.188-0.128 0.291-0.334 0.469-0.469 0.205-0.161 0.462-0.229 0.648-0.409l20.343-19.055c10.586-9.918 12.045-26.166 3.391-37.788zM34.087 284.322c-2.773 1.485-5.922 1.783-8.934 0.828-2.987-0.93-5.41-2.971-6.827-5.726-2.577-5.017-1.084-11.128 3.43-14.43l21.018-10.113 7.185 21.001-15.872 8.44zM90.041 255.079l-24.773 12.8-7.022-20.532 32.428-16.010-0.633 23.742zM331.631 149.152c0 14.695-3.507 28.553-9.583 40.952l-66.901-30.387c-0.701-9.173-5.462-17.203-12.613-22.205l23.425-77.765c38.043 12.101 65.673 47.592 65.673 89.405zM143.008 149.152c0-51.755 42.309-93.868 94.312-93.868 4.045 0 8.004 0.341 11.921 0.836l-22.912 76.059c-0.307-0.009-0.597-0.095-0.913-0.095-16.521 0-29.961 13.398-29.961 29.868 0 16.469 13.44 29.867 29.961 29.867 11.111 0 20.71-6.135 25.891-15.113l61.799 28.076c-17.195 23.142-44.715 38.238-75.786 38.238-52.001 0-94.31-42.113-94.31-93.869zM238.31 161.953c0 7.057-5.786 12.8-12.894 12.8s-12.893-5.743-12.893-12.8c0-7.058 5.786-12.801 12.893-12.801 7.109 0 12.894 5.743 12.894 12.801zM39.438 402.34c-3.78 3.747-9.899 3.738-13.67 0.009-1.818-1.817-2.816-4.214-2.816-6.767 0-2.543 0.998-4.942 2.816-6.741l15.393-15.335 13.619 13.56-15.342 15.274zM90.859 462.075c-3.78 3.745-9.907 3.755-13.679 0.009-1.818-1.817-2.816-4.215-2.816-6.767 0-2.543 0.998-4.941 2.816-6.741l15.403-15.343 13.629 13.56-15.353 15.283zM146.566 406.574c-0.009 0.008-0.017 0.008-0.026 0.017l-28.237 28.16-13.629-13.56 28.212-28.083c0 0 0 0 0-0.008 0.009-0.009 0.017-0.009 0.025-0.017 0.64-0.64 1.041-1.408 1.435-2.167 0.111-0.223 0.324-0.411 0.417-0.64 0.265-0.657 0.307-1.365 0.411-2.058 0.050-0.393 0.221-0.759 0.221-1.161 0-0.572-0.205-1.125-0.324-1.69-0.101-0.512-0.101-1.034-0.299-1.527-0.324-0.803-0.879-1.51-1.458-2.202-0.162-0.188-0.222-0.426-0.401-0.606 0 0 0 0-0.009 0-0.009-0.008-0.009-0.026-0.017-0.034l-25.711-25.6c-0.273-0.273-0.623-0.384-0.93-0.615-0.452-0.349-0.887-0.673-1.391-0.921-0.486-0.239-0.981-0.384-1.493-0.521-0.546-0.154-1.075-0.274-1.647-0.316-0.521-0.034-1.007 0.017-1.527 0.077-0.572 0.068-1.109 0.145-1.664 0.324-0.537 0.171-1.014 0.435-1.51 0.717-0.316 0.179-0.674 0.239-0.973 0.461l-28.374 21.181-14.413-14.353 38.384-38.178 69.769 68.618-14.841 14.703zM255.667 294.307c-0.247-0.034-0.478 0.060-0.725 0.043-0.623-0.034-1.22 0.009-1.843 0.111-0.487 0.085-0.947 0.178-1.408 0.341-0.547 0.188-1.042 0.444-1.546 0.751-0.477 0.289-0.913 0.597-1.331 0.981-0.206 0.179-0.452 0.265-0.64 0.469l-75.173 82.331-69.249-68.106 45.329-45.091c3.337-3.328 3.355-8.729 0.026-12.075-1.681-1.681-3.891-2.509-6.101-2.5v-0.008l-35.499 0.214 0.444-25.72 49.665 0.427c20.242 20.703 48.469 33.614 79.702 33.614 6.997 0 13.824-0.725 20.471-1.963 0.64 0.512 1.271 1.034 2.074 1.358l38.555 15.36 2.44 12.135 2.849 14.165-48.042-6.835zM320.325 297.157l-5.009-24.926 23.142-17.281 15.147 20.105-33.281 22.103zM380.383 251.861l-13.406 12.562-14.899-19.781 13.303-10.197c2.483-1.911 5.615-2.688 8.687-2.287 3.089 0.435 5.82 2.048 7.68 4.548 3.465 4.668 2.876 11.179-1.365 15.155z"></path>
<path fill="#2e2f42" d="M217.633 296.705l-34.288-34.133c-3.319-3.319-8.713-3.319-12.041 0l-34.279 34.134c-1.604 1.613-2.51 3.78-2.51 6.050s0.896 4.447 2.51 6.050l34.279 34.134c1.664 1.655 3.849 2.483 6.025 2.483s4.36-0.828 6.016-2.483l34.288-34.134c1.604-1.604 2.517-3.78 2.517-6.050 0-2.269-0.905-4.445-2.517-6.050zM177.329 324.848l-22.187-22.094 22.187-22.093 22.195 22.093-22.195 22.094z"></path>
<path fill="#2e2f42" d="M274.628 81.132l-4.122 16.573c1.135 0.281 27.803 7.228 27.803 34.381h17.067c-0.001-32.275-26.651-47.447-40.748-50.954z"></path>
<path fill="#2e2f42" d="M315.376 149.152h-17.067v17.068h17.067v-17.068z"></path>
</svg>
