<!-- Generated by IcoMoon.io -->
<svg version="1.1" xmlns="http://www.w3.org/2000/svg" width="512" height="512" viewBox="0 0 512 512">
<g id="icomoon-ignore">
</g>
<path fill="#2e2f42" d="M500.747 244.82c-0.027-135.238-109.684-244.847-244.927-244.82-135.238 0.028-244.847 109.687-244.82 244.925 0.024 106.527 68.91 200.817 170.391 233.219 0.969 0.305 1.977 0.461 2.989 0.457 1.929-0.004 3.82-0.519 5.48-1.5 2.16-1.277 3.774-3.309 4.531-5.703l61.84-196c16.906-0.086 30.539-13.863 30.45-30.766-0.087-16.906-13.86-30.539-30.766-30.453-4.547 0.019-9.035 1.066-13.121 3.063l-81.695-81.707c-4.054-3.915-10.512-3.801-14.425 0.25-3.821 3.958-3.821 10.223 0 14.18l81.652 81.746c-6.266 12.789-2.683 28.227 8.583 36.945l-58.922 186.765c-116.445-42.894-176.070-172.063-133.175-288.507s172.063-176.071 288.508-133.176c116.445 42.894 176.070 172.066 133.175 288.508-20.957 56.891-64.015 102.899-119.394 127.574l-6.367-29.988c-1.164-5.512-6.582-9.035-12.094-7.867-1.738 0.371-3.352 1.188-4.68 2.371l-61.39 54.809c-4.211 3.745-4.586 10.195-0.836 14.406 1.219 1.367 2.781 2.382 4.531 2.941l78.379 25.016c5.363 1.723 11.11-1.226 12.832-6.594 0.546-1.695 0.637-3.5 0.269-5.243l-6.257-29.425c90.629-38.207 149.472-127.075 149.262-225.427zM255.875 234.618c5.633 0 10.203 4.57 10.203 10.202 0 5.637-4.57 10.203-10.203 10.203-5.637 0-10.203-4.566-10.203-10.203 0-5.633 4.566-10.202 10.203-10.202zM289.481 472.442l34.945-31.172 9.645 45.445-44.589-14.274z"></path>
<path fill="#4d5ae5" d="M245.672 50.961v20.406c0 5.636 4.566 10.203 10.203 10.203 5.633 0 10.203-4.567 10.203-10.203v-20.406c0-5.633-4.57-10.203-10.203-10.203-5.637 0-10.203 4.571-10.203 10.203z"></path>
<path fill="#4d5ae5" d="M62.016 234.617c-5.636 0-10.203 4.571-10.203 10.203 0 5.637 4.566 10.203 10.203 10.203h20.406c5.637 0 10.203-4.566 10.203-10.203 0-5.633-4.567-10.203-10.203-10.203h-20.406z"></path>
<path fill="#4d5ae5" d="M449.729 255.023c5.637 0 10.203-4.566 10.203-10.203 0-5.633-4.567-10.203-10.203-10.203h-20.406c-5.633 0-10.203 4.571-10.203 10.203 0 5.637 4.57 10.203 10.203 10.203h20.406z"></path>
</svg>
