<!-- Generated by IcoMoon.io -->
<svg version="1.1" xmlns="http://www.w3.org/2000/svg" width="512" height="512" viewBox="0 0 512 512">
<g id="icomoon-ignore">
</g>
<path fill="#4d5ae5" d="M238.808 239.434h17.059v76.76h-17.059v-76.76z"></path>
<path fill="#4d5ae5" d="M307.039 273.549h17.058v42.645h-17.058v-42.645z"></path>
<path fill="#4d5ae5" d="M170.577 299.136h17.058v17.058h-17.058v-17.058z"></path>
<path fill="#4d5ae5" d="M119.404 290.606h17.058v25.587h-17.058v-25.587z"></path>
<path fill="#2e2f42" d="M25.587 452.655h409.385c14.13 0 25.587-11.456 25.587-25.587v-34.115c0-14.13-11.457-25.587-25.587-25.587h-8.529v-212.693l48.445-45.893c11.244 5.543 24.853 2.177 32.212-7.979 7.363-10.153 6.33-24.133-2.44-33.096s-22.721-10.299-33.037-3.165c-10.311 7.138-13.976 20.669-8.679 32.033l-36.502 34.603v-19.677c0-14.13-11.456-25.587-25.587-25.587h-341.154c-14.13 0-25.587 11.456-25.587 25.587v255.867h-8.529c-14.13 0-25.587 11.456-25.587 25.587v34.115c0 14.13 11.457 25.587 25.587 25.587zM486.146 77.385c4.709 0 8.529 3.819 8.529 8.529s-3.819 8.529-8.529 8.529c-4.711 0-8.529-3.819-8.529-8.529s3.818-8.529 8.529-8.529zM51.173 111.501c0-4.71 3.819-8.529 8.529-8.529h341.154c4.709 0 8.529 3.819 8.529 8.529v35.819l-17.058 16.209v-34.969c0-4.71-3.819-8.529-8.529-8.529h-307.039c-4.71 0-8.529 3.819-8.529 8.529v213.221c0 4.711 3.819 8.529 8.529 8.529h307.039c4.709 0 8.529-3.818 8.529-8.529v-154.79l17.058-16.162v196.539h-358.212v-255.867zM127.933 222.376c-11.539-0.033-21.672 7.655-24.741 18.778s1.683 22.921 11.606 28.81c9.92 5.888 22.559 4.409 30.85-3.615l29.647 14.876c3.444 1.724 7.621 0.916 10.181-1.962l63.022-70.901 61.951 46.422c3.323 2.491 7.963 2.224 10.978-0.629l53.843-51.002v130.099h-289.981v-196.164h289.981v42.565l-60.344 57.145-62.471-46.833c-3.548-2.657-8.541-2.157-11.489 1.154l-63.887 71.883-23.884-11.944c0.175-1.024 0.283-2.057 0.326-3.095 0-14.13-11.457-25.587-25.587-25.587zM136.462 247.963c0 4.71-3.819 8.53-8.529 8.53s-8.529-3.819-8.529-8.53c0-4.709 3.819-8.529 8.529-8.529s8.529 3.819 8.529 8.529zM187.635 384.425h85.289v8.529c0 4.709-3.819 8.529-8.529 8.529h-68.231c-4.71 0-8.529-3.819-8.529-8.529v-8.529zM17.058 392.954c0-4.711 3.819-8.529 8.529-8.529h144.991v8.529c0 14.13 11.456 25.587 25.587 25.587h68.231c14.13 0 25.587-11.456 25.587-25.587v-8.529h144.99c4.711 0 8.529 3.818 8.529 8.529v34.115c0 4.711-3.818 8.529-8.529 8.529h-409.385c-4.71 0-8.529-3.818-8.529-8.529v-34.115z"></path>
</svg>
