<!-- Generated by IcoMoon.io -->
<svg version="1.1" xmlns="http://www.w3.org/2000/svg" width="512" height="512" viewBox="0 0 512 512">
<g id="icomoon-ignore">
</g>
<path fill="#4d5ae5" d="M512 255.999c0 70.693-28.654 134.693-74.981 181.020s-110.327 74.98-181.019 74.98c-70.692 0-134.692-28.653-181.019-74.98s-74.981-110.327-74.981-181.020c0-70.692 28.654-134.692 74.981-181.019s110.327-74.981 181.019-74.981c70.692 0 134.692 28.654 181.019 74.981s74.981 110.327 74.981 181.019z"></path>
<path fill="#f4f4fd" d="M358.35 358.4v-0.009h0.051v-75.111c0-36.745-7.911-65.049-50.867-65.049-20.65 0-34.509 11.332-40.166 22.076h-0.598v-18.646h-40.73v136.73h42.412v-67.703c0-17.827 3.379-35.065 25.454-35.065 21.752 0 22.076 20.344 22.076 36.207v66.569h42.368z"></path>
<path fill="#f4f4fd" d="M156.979 221.669h42.463v136.73h-42.463v-136.73z"></path>
<path fill="#f4f4fd" d="M178.194 153.599c-13.577 0-24.593 11.017-24.593 24.594 0 13.576 11.016 24.823 24.593 24.823s24.593-11.248 24.593-24.823c-0.007-13.577-11.024-24.594-24.593-24.594v0z"></path>
</svg>
