<!-- Generated by IcoMoon.io -->
<svg version="1.1" xmlns="http://www.w3.org/2000/svg" width="512" height="512" viewBox="0 0 512 512">
<g id="icomoon-ignore">
</g>
<path fill="#4d5ae5" d="M512 256c0 70.692-28.654 134.692-74.981 181.019s-110.327 74.981-181.019 74.981c-70.692 0-134.692-28.654-181.019-74.981s-74.981-110.327-74.981-181.019c0-70.692 28.654-134.692 74.981-181.019s110.327-74.981 181.019-74.981c70.692 0 134.692 28.654 181.019 74.981s74.981 110.327 74.981 181.019z"></path>
<path fill="#f4f4fd" d="M409.299 192.718c-0.719-16.322-3.358-27.544-7.14-37.268-3.901-10.322-9.902-19.562-17.765-27.245-7.682-7.802-16.983-13.864-27.186-17.703-9.779-3.781-20.942-6.421-37.266-7.141-16.444-0.781-21.664-0.961-63.373-0.961-41.708 0-46.928 0.18-63.313 0.9-16.322 0.719-27.544 3.362-37.266 7.141-10.323 3.901-19.565 9.902-27.246 17.764-7.802 7.683-13.862 16.984-17.703 27.186-3.781 9.783-6.421 20.944-7.141 37.266-0.781 16.444-0.961 21.666-0.961 63.373 0 41.709 0.18 46.928 0.9 63.313 0.719 16.322 3.362 27.544 7.143 37.269 3.901 10.322 9.96 19.562 17.762 27.245 7.681 7.801 16.983 13.863 27.186 17.704 9.782 3.781 20.944 6.421 37.268 7.14 16.38 0.722 21.604 0.9 63.312 0.9 41.709 0 46.928-0.178 63.313-0.9 16.322-0.719 27.545-3.358 37.266-7.14 20.645-7.982 36.967-24.306 44.95-44.949 3.78-9.782 6.422-20.946 7.141-37.269 0.719-16.384 0.9-21.604 0.9-63.313 0-41.708-0.062-46.928-0.781-63.311zM381.636 318.142c-0.662 15.003-3.182 23.104-5.281 28.505-5.162 13.382-15.784 24.004-29.168 29.166-5.401 2.101-13.562 4.621-28.505 5.279-16.204 0.722-21.063 0.901-62.050 0.901-40.989 0-45.91-0.179-62.054-0.901-15.003-0.658-23.104-3.178-28.506-5.279-6.66-2.462-12.722-6.363-17.642-11.464-5.101-4.981-9.001-10.983-11.463-17.642-2.101-5.401-4.621-13.563-5.28-28.505-0.722-16.204-0.9-21.065-0.9-62.053s0.178-45.91 0.9-62.052c0.659-15.003 3.179-23.104 5.28-28.506 2.462-6.661 6.362-12.722 11.524-17.645 4.979-5.101 10.98-9.001 17.642-11.46 5.401-2.101 13.564-4.621 28.506-5.282 16.203-0.72 21.065-0.9 62.050-0.9 41.050 0 45.91 0.18 62.055 0.9 15.003 0.662 23.104 3.182 28.505 5.282 6.66 2.459 12.722 6.359 17.642 11.46 5.101 4.982 9.002 10.983 11.464 17.645 2.099 5.401 4.62 13.561 5.281 28.506 0.719 16.203 0.9 21.064 0.9 62.052s-0.18 45.789-0.9 61.993z"></path>
<path fill="#f4f4fd" d="M256.57 177.113c-43.566 0-78.915 35.346-78.915 78.916 0 43.568 35.349 78.914 78.915 78.914 43.57 0 78.916-35.346 78.916-78.914 0-43.57-35.346-78.916-78.916-78.916zM256.57 307.218c-28.263 0-51.19-22.923-51.19-51.19s22.926-51.191 51.19-51.191c28.267 0 51.191 22.925 51.191 51.191s-22.923 51.19-51.191 51.19z"></path>
<path fill="#f4f4fd" d="M357.031 173.995c0 10.173-8.248 18.423-18.425 18.423-10.173 0-18.423-8.25-18.423-18.423 0-10.178 8.25-18.423 18.423-18.423 10.178 0 18.425 8.246 18.425 18.423z"></path>
</svg>
