<!-- Generated by IcoMoon.io -->
<svg version="1.1" xmlns="http://www.w3.org/2000/svg" width="512" height="512" viewBox="0 0 512 512">
<g id="icomoon-ignore">
</g>
<path fill="#4d5ae5" d="M512 255.999c0 70.693-28.654 134.693-74.981 181.020s-110.327 74.98-181.019 74.98c-70.692 0-134.692-28.653-181.019-74.98s-74.981-110.327-74.981-181.020c0-70.692 28.654-134.692 74.981-181.019s110.327-74.981 181.019-74.981c70.692 0 134.692 28.654 181.019 74.981s74.981 110.327 74.981 181.019z"></path>
<path fill="#f4f4fd" d="M290.108 187.605h18.697v-32.563c-3.226-0.444-14.32-1.442-27.238-1.442-26.957 0-45.423 16.956-45.423 48.12v28.679h-29.747v36.403h29.747v91.597h36.471v-91.588h28.544l4.531-36.403h-33.083v-25.079c0.007-10.522 2.841-17.724 17.502-17.724z"></path>
</svg>
