<!-- Generated by IcoMoon.io -->
<svg version="1.1" xmlns="http://www.w3.org/2000/svg" width="512" height="512" viewBox="0 0 512 512">
<g id="icomoon-ignore">
</g>
<path fill="#4d5ae5" d="M512 255.999c0 70.693-28.654 134.693-74.981 181.020s-110.327 74.98-181.019 74.98c-70.692 0-134.692-28.653-181.019-74.98s-74.981-110.327-74.981-181.020c0-70.692 28.654-134.692 74.981-181.019s110.327-74.981 181.019-74.981c70.692 0 134.692 28.654 181.019 74.981s74.981 110.327 74.981 181.019z"></path>
<path fill="#f4f4fd" d="M358.199 213.811c-0.48-10.882-2.24-18.363-4.76-24.846-2.601-6.881-6.601-13.041-11.842-18.162-5.122-5.202-11.323-9.243-18.123-11.803-6.521-2.52-13.962-4.28-24.845-4.761-10.963-0.521-14.443-0.642-42.249-0.642s-31.286 0.12-42.208 0.601c-10.881 0.48-18.363 2.242-24.844 4.761-6.882 2.601-13.043 6.601-18.165 11.844-5.201 5.121-9.242 11.322-11.803 18.124-2.52 6.522-4.28 13.962-4.761 24.844-0.519 10.963-0.64 14.444-0.64 42.249s0.12 31.286 0.601 42.208c0.478 10.882 2.24 18.363 4.762 24.846 2.6 6.882 6.641 13.042 11.841 18.163 5.121 5.2 11.323 9.241 18.124 11.801 6.522 2.521 13.962 4.281 24.846 4.76 10.921 0.481 14.403 0.601 42.208 0.601s31.286-0.119 42.208-0.601c10.882-0.48 18.363-2.24 24.844-4.76 13.764-5.321 24.645-16.204 29.968-29.965 2.519-6.522 4.281-13.964 4.76-24.846 0.48-10.922 0.601-14.402 0.601-42.208s-0.041-31.286-0.521-42.208zM339.757 297.427c-0.442 10.002-2.121 15.404-3.522 19.004-3.442 8.921-10.523 16.002-19.445 19.445-3.601 1.401-9.041 3.079-19.004 3.519-10.802 0.481-14.041 0.601-41.367 0.601s-30.606-0.119-41.368-0.601c-10.002-0.439-15.404-2.118-19.004-3.519-4.441-1.641-8.482-4.242-11.762-7.643-3.401-3.32-6-7.322-7.642-11.762-1.4-3.601-3.081-9.042-3.52-19.003-0.482-10.802-0.601-14.044-0.601-41.37s0.119-30.606 0.601-41.367c0.439-10.002 2.119-15.404 3.52-19.004 1.641-4.441 4.24-8.482 7.683-11.763 3.319-3.399 7.321-6 11.762-7.641 3.601-1.4 9.042-3.079 19.003-3.522 10.802-0.48 14.044-0.601 41.368-0.601 27.365 0 30.605 0.12 41.368 0.601 10.002 0.441 15.404 2.121 19.004 3.522 4.439 1.639 8.481 4.24 11.762 7.641 3.399 3.321 6 7.321 7.642 11.763 1.401 3.601 3.079 9.041 3.522 19.004 0.48 10.802 0.601 14.042 0.601 41.367s-0.12 30.526-0.601 41.329z"></path>
<path fill="#f4f4fd" d="M256.38 203.409c-29.044 0-52.611 23.564-52.611 52.611 0 29.046 23.566 52.611 52.611 52.611 29.046 0 52.61-23.565 52.61-52.611 0-29.047-23.563-52.611-52.61-52.611zM256.38 290.146c-18.843 0-34.127-15.282-34.127-34.126s15.285-34.127 34.127-34.127c18.844 0 34.126 15.283 34.126 34.127s-15.282 34.126-34.126 34.126z"></path>
<path fill="#f4f4fd" d="M323.353 201.328c0 6.782-5.499 12.283-12.283 12.283-6.783 0-12.283-5.5-12.283-12.283 0-6.784 5.5-12.281 12.283-12.281s12.283 5.498 12.283 12.281z"></path>
</svg>
