<!-- Generated by IcoMoon.io -->
<svg version="1.1" xmlns="http://www.w3.org/2000/svg" width="512" height="512" viewBox="0 0 512 512">
<g id="icomoon-ignore">
</g>
<path fill="#4d5ae5" d="M512 256c0 70.692-28.654 134.692-74.981 181.019s-110.327 74.981-181.019 74.981c-70.692 0-134.692-28.654-181.019-74.981s-74.981-110.327-74.981-181.019c0-70.692 28.654-134.692 74.981-181.019s110.327-74.981 181.019-74.981c70.692 0 134.692 28.654 181.019 74.981s74.981 110.327 74.981 181.019z"></path>
<path fill="#f4f4fd" d="M409.6 160.749c-11.424 5.011-23.597 8.333-36.288 9.946 13.056-7.795 23.021-20.045 27.706-34.81-12.173 7.257-25.613 12.384-39.936 15.245-11.558-12.307-28.032-19.929-46.003-19.929-34.867 0-62.938 28.301-62.938 62.995 0 4.992 0.423 9.792 1.459 14.362-52.358-2.554-98.688-27.648-129.811-65.875-5.433 9.427-8.621 20.218-8.621 31.834 0 21.811 11.232 41.145 27.974 52.339-10.119-0.192-20.045-3.13-28.454-7.757 0 0.192 0 0.441 0 0.691 0 30.605 21.831 56.025 50.458 61.881-5.126 1.401-10.714 2.074-16.512 2.074-4.032 0-8.102-0.231-11.923-1.075 8.16 24.941 31.315 43.277 58.848 43.872-21.427 16.762-48.633 26.861-78.087 26.861-5.165 0-10.118-0.231-15.072-0.864 27.898 17.99 60.96 28.262 96.615 28.262 115.891 0 179.251-96 179.251-179.213 0-2.784-0.096-5.472-0.231-8.141 12.499-8.87 23.002-19.949 31.565-32.697z"></path>
</svg>
