<!-- Generated by IcoMoon.io -->
<svg version="1.1" xmlns="http://www.w3.org/2000/svg" width="512" height="512" viewBox="0 0 512 512">
<g id="icomoon-ignore">
</g>
<path fill="#4d5ae5" d="M512 255.999c0 70.693-28.654 134.693-74.981 181.020s-110.327 74.98-181.019 74.98c-70.692 0-134.692-28.653-181.019-74.98s-74.981-110.327-74.981-181.020c0-70.692 28.654-134.692 74.981-181.019s110.327-74.981 181.019-74.981c70.692 0 134.692 28.654 181.019 74.981s74.981 110.327 74.981 181.019z"></path>
<path fill="#f4f4fd" d="M358.4 192.498c-7.616 3.341-15.731 5.555-24.192 6.631 8.704-5.197 15.347-13.363 18.471-23.207-8.115 4.839-17.075 8.256-26.624 10.163-7.705-8.205-18.688-13.286-30.669-13.286-23.245 0-41.959 18.867-41.959 41.997 0 3.328 0.281 6.528 0.973 9.575-34.906-1.702-65.792-18.432-86.541-43.917-3.623 6.285-5.747 13.478-5.747 21.222 0 14.541 7.488 27.43 18.649 34.893-6.745-0.128-13.363-2.087-18.97-5.171 0 0.128 0 0.294 0 0.461 0 20.403 14.554 37.35 33.638 41.254-3.417 0.935-7.143 1.382-11.008 1.382-2.688 0-5.401-0.154-7.949-0.717 5.44 16.627 20.877 28.851 39.232 29.248-14.285 11.175-32.423 17.907-52.058 17.907-3.443 0-6.745-0.154-10.048-0.576 18.599 11.993 40.64 18.841 64.409 18.841 77.261 0 119.501-64 119.501-119.475 0-1.856-0.064-3.648-0.154-5.427 8.333-5.913 15.334-13.299 21.043-21.798z"></path>
</svg>
