<!-- Generated by IcoMoon.io -->
<svg version="1.1" xmlns="http://www.w3.org/2000/svg" width="512" height="512" viewBox="0 0 512 512">
<g id="icomoon-ignore">
</g>
<path fill="#4d5ae5" d="M512 256c0 70.692-28.654 134.692-74.981 181.019s-110.327 74.981-181.019 74.981c-70.692 0-134.692-28.654-181.019-74.981s-74.981-110.327-74.981-181.019c0-70.692 28.654-134.692 74.981-181.019s110.327-74.981 181.019-74.981c70.692 0 134.692 28.654 181.019 74.981s74.981 110.327 74.981 181.019z"></path>
<path fill="#f4f4fd" d="M409.524 409.6v-0.013h0.077v-112.666c0-55.117-11.865-97.575-76.301-97.575-30.978 0-51.764 16.999-60.251 33.113h-0.896v-27.968h-61.094v205.095h63.616v-101.555c0-26.739 5.069-52.595 38.183-52.595 32.628 0 33.115 30.515 33.115 54.311v99.853h63.552z"></path>
<path fill="#f4f4fd" d="M107.469 204.507h63.692v205.093h-63.692v-205.093z"></path>
<path fill="#f4f4fd" d="M139.29 102.4c-20.364 0-36.889 16.525-36.889 36.889s16.525 37.235 36.889 37.235c20.365 0 36.889-16.87 36.889-37.235-0.013-20.365-16.537-36.889-36.889-36.889v0z"></path>
</svg>
