<!-- Generated by IcoMoon.io -->
<svg version="1.1" xmlns="http://www.w3.org/2000/svg" width="512" height="512" viewBox="0 0 512 512">
<g id="icomoon-ignore">
</g>
<path fill="#4d5ae5" d="M512 256c0 70.692-28.654 134.692-74.981 181.019s-110.327 74.981-181.019 74.981c-70.692 0-134.692-28.654-181.019-74.981s-74.981-110.327-74.981-181.019c0-70.692 28.654-134.692 74.981-181.019s110.327-74.981 181.019-74.981c70.692 0 134.692 28.654 181.019 74.981s74.981 110.327 74.981 181.019z"></path>
<path fill="#f4f4fd" d="M307.161 153.408h28.045v-48.845c-4.839-0.665-21.478-2.163-40.858-2.163-40.435 0-68.135 25.433-68.135 72.179v43.021h-44.621v54.605h44.621v137.395h54.707v-137.382h42.816l6.797-54.605h-49.625v-37.619c0.013-15.782 4.262-26.585 26.253-26.585z"></path>
</svg>
